<?xml version="1.0" encoding="utf-8"?>
<!-- Generator: Adobe Illustrator 27.7.0, SVG Export Plug-In . SVG Version: 6.00 Build 0)  -->
<svg version="1.1" id="Layer_1" xmlns="http://www.w3.org/2000/svg" xmlns:xlink="http://www.w3.org/1999/xlink" x="0px" y="0px"
	 viewBox="0 0 1200 1200" style="enable-background:new 0 0 1200 1200;" xml:space="preserve">
<style type="text/css">
	.st0{fill:#E1DFEF;}
	.st1{fill:#311164;}
	.st2{fill:#A46EEF;}
	.st3{fill:#673AC3;}
</style>
<g>
	<path class="st0" d="M1370,717.3c-110.5,0-257.9-172.4-274.4-192c-8.8-10.5-8.8-25.9,0-36.4c16.4-19.7,163.9-192,274.4-192
		c115.9,0,210.2,94.3,210.2,210.2C1580.2,623,1485.9,717.3,1370,717.3z M1154.9,507.1c59,65.8,157.2,153.5,215.1,153.5
		c84.6,0,153.5-68.9,153.5-153.5c0-84.6-68.9-153.5-153.5-153.5C1312.1,353.6,1213.9,441.3,1154.9,507.1z"/>
</g>
<g>
	<path class="st0" d="M989.6,1095.6c-115.9,0-210.2-94.3-210.2-210.2c0-110.5,172.3-257.9,192-274.4c10.5-8.8,25.9-8.8,36.4,0
		c19.7,16.4,192,163.9,192,274.4C1199.8,1001.3,1105.5,1095.6,989.6,1095.6z M989.6,670.3c-65.8,59-153.5,157.2-153.5,215.1
		c0,84.6,68.9,153.5,153.5,153.5s153.5-68.9,153.5-153.5C1143.1,827.5,1055.3,729.3,989.6,670.3z"/>
</g>
<g>
	<path class="st0" d="M611.3,717.3c-115.9,0-210.2-94.3-210.2-210.2c0-115.9,94.3-210.2,210.2-210.2c110.5,0,257.9,172.3,274.4,192
		c8.8,10.5,8.8,25.9,0,36.4C869.2,545,721.8,717.3,611.3,717.3z M611.3,353.6c-84.6,0-153.5,68.9-153.5,153.5
		c0,84.6,68.9,153.5,153.5,153.5c57.9,0,156.1-87.7,215.1-153.5C767.4,441.3,669.2,353.6,611.3,353.6z"/>
</g>
<g>
	<path class="st0" d="M989.6,407.7c-6.5,0-12.9-2.2-18.2-6.6c-19.7-16.4-192-163.9-192-274.4c0-115.9,94.3-210.2,210.2-210.2
		s210.2,94.3,210.2,210.2c0,110.5-172.3,257.9-192,274.4C1002.5,405.5,996,407.7,989.6,407.7z M989.6-26.8
		c-84.6,0-153.5,68.9-153.5,153.5c0,57.9,87.7,156.1,153.5,215.1c65.8-59,153.5-157.2,153.5-215.1C1143.1,42,1074.2-26.8,989.6-26.8
		z"/>
</g>
<g>
	<path class="st1" d="M989.6,489.7c-77.3,0-140.2-62.9-140.2-140.2c0-73.7,114.9-172,128-183c7-5.9,17.2-5.9,24.3,0
		c13.1,11,128,109.3,128,183C1129.7,426.8,1066.9,489.7,989.6,489.7z M989.6,206c-43.9,39.4-102.4,104.9-102.4,143.4
		c0,56.4,45.9,102.4,102.4,102.4c56.4,0,102.4-45.9,102.4-102.4C1091.9,310.9,1033.4,245.4,989.6,206z"/>
</g>
<g>
	<path class="st2" d="M718.3,366.3c77.3,0,140.2,62.9,140.2,140.2c0,73.7-114.9,172-128,183c-7,5.9-17.2,5.9-24.3,0
		c-13.1-11-128-109.3-128-183C578.2,429.2,641,366.3,718.3,366.3z M718.3,649.9c43.9-39.4,102.4-104.9,102.4-143.4
		c0-56.4-45.9-102.4-102.4-102.4S616,450.1,616,506.5C616,545.1,674.5,610.6,718.3,649.9z"/>
</g>
<g>
	<path class="st2" d="M1200,768c77.3,0,140.2,62.9,140.2,140.2c0,73.7-114.9,172-128,183c-7,5.9-17.2,5.9-24.3,0
		c-13.1-11-128-109.3-128-183C1059.8,830.9,1122.7,768,1200,768z M1200,1051.6c43.9-39.4,102.4-104.9,102.4-143.4
		c0-56.4-45.9-102.4-102.4-102.4s-102.4,45.9-102.4,102.4C1097.6,946.8,1156.1,1012.3,1200,1051.6z"/>
</g>
<g>
	<path class="st3" d="M1306.8,601.2c0,77.3-62.9,140.2-140.2,140.2c-73.7,0-172-114.9-183-128c-5.9-7-5.9-17.2,0-24.3
		c11-13.1,109.3-128,183-128C1244,461.1,1306.8,523.9,1306.8,601.2z M1023.2,601.2c39.4,43.9,104.9,102.4,143.4,102.4
		c56.4,0,102.4-45.9,102.4-102.4s-45.9-102.4-102.4-102.4C1128.1,498.9,1062.6,557.4,1023.2,601.2z"/>
</g>
<g>
	<path class="st3" d="M568.8,0c0-77.3,62.9-140.2,140.2-140.2c73.7,0,172,114.9,183,128c5.9,7,5.9,17.2,0,24.3
		c-11,13.1-109.3,128-183,128C631.7,140.2,568.8,77.3,568.8,0z M852.4,0C813.1-43.9,747.5-102.4,709-102.4
		c-56.4,0-102.4,45.9-102.4,102.4S652.5,102.4,709,102.4C747.5,102.4,813.1,43.9,852.4,0z"/>
</g>
</svg>
